<?xml version="1.0" encoding="utf-8"?>
<!-- Generator: Adobe Illustrator 16.0.0, SVG Export Plug-In . SVG Version: 6.00 Build 0)  -->
<!DOCTYPE svg PUBLIC "-//W3C//DTD SVG 1.1//EN" "http://www.w3.org/Graphics/SVG/1.1/DTD/svg11.dtd">
<svg version="1.1" id="图层_1" xmlns:sketch="http://www.bohemiancoding.com/sketch/ns"
	 xmlns="http://www.w3.org/2000/svg" xmlns:xlink="http://www.w3.org/1999/xlink" x="0px" y="0px" width="25px" height="25px"
	 viewBox="0 0 25 25" enable-background="new 0 0 25 25" xml:space="preserve">
<title>1名</title>
<desc>Created with Sketch.</desc>
<g transform="translate(50.000000, 0.000000)">
	<g id="Rectangle-60-_x2B_-Rectangle-60-Copy-3">
		<path id="Rectangle-60-Copy-3" sketch:type="MSShapeGroup" fill="#E55453" d="M-46.632,8.717l-3.078,3.078
			c-0.385,0.386-0.389,1.019,0,1.409l3.078,3.078v4.354c0,0.544,0.445,0.995,0.995,0.995h4.354l3.079,3.08
			c0.386,0.385,1.019,0.389,1.409,0l3.078-3.08h4.354c0.544,0,0.995-0.443,0.995-0.995v-4.354l3.08-3.078
			c0.385-0.386,0.389-1.021,0-1.409l-3.08-3.079V4.362c0-0.543-0.443-0.995-0.995-0.995h-4.354l-3.078-3.078
			c-0.386-0.385-1.021-0.389-1.409,0l-3.079,3.078h-4.354c-0.544,0-0.995,0.445-0.995,0.995V8.717z"/>
	</g>
</g>
<g enable-background="new    ">
	<path fill="#F5F5F5" d="M14.098,7.496v10.008h-2.897v-5.742H8.902V9.739c1.713,0.037,2.716-0.711,3.008-2.242L14.098,7.496
		L14.098,7.496z"/>
</g>
</svg>
