<?xml version="1.0" encoding="utf-8"?>
<!-- Generator: Adobe Illustrator 16.0.0, SVG Export Plug-In . SVG Version: 6.00 Build 0)  -->
<!DOCTYPE svg PUBLIC "-//W3C//DTD SVG 1.1//EN" "http://www.w3.org/Graphics/SVG/1.1/DTD/svg11.dtd">
<svg version="1.1" id="图层_1" xmlns:sketch="http://www.bohemiancoding.com/sketch/ns"
	 xmlns="http://www.w3.org/2000/svg" xmlns:xlink="http://www.w3.org/1999/xlink" x="0px" y="0px" width="25px" height="25px"
	 viewBox="0 0 25 25" enable-background="new 0 0 25 25" xml:space="preserve">
<title>1名</title>
<desc>Created with Sketch.</desc>
<g transform="translate(50.000000, 0.000000)">
	<g id="Rectangle-60-_x2B_-Rectangle-60-Copy-3_1_">
		<path id="Rectangle-60-Copy-3_1_" sketch:type="MSShapeGroup" fill="#F0BB0F" d="M-46.632,8.717l-3.078,3.078
			c-0.385,0.386-0.389,1.019,0,1.409l3.078,3.078v4.354c0,0.544,0.445,0.995,0.995,0.995h4.354l3.079,3.08
			c0.386,0.385,1.019,0.389,1.409,0l3.078-3.08h4.354c0.544,0,0.995-0.443,0.995-0.995v-4.354l3.08-3.078
			c0.385-0.386,0.389-1.021,0-1.409l-3.08-3.079V4.362c0-0.543-0.443-0.995-0.995-0.995h-4.354l-3.078-3.078
			c-0.386-0.385-1.021-0.389-1.409,0l-3.079,3.078h-4.354c-0.544,0-0.995,0.445-0.995,0.995V8.717z"/>
	</g>
</g>
<g enable-background="new    ">
	<path fill="#F5F5F5" d="M16.633,17.504H8.321c-0.073-0.947,0.328-1.877,1.203-2.789c0.401-0.438,1.094-0.984,2.078-1.641
		c1.458-0.875,2.167-1.677,2.132-2.406c-0.073-0.583-0.457-0.911-1.148-0.984c-1.021,0.037-1.495,0.656-1.422,1.859H8.54
		c-0.036-2.698,1.349-4.047,4.155-4.047c2.589,0.109,3.919,1.167,3.992,3.172c0,1.094-0.783,2.133-2.352,3.117
		c-0.146,0.072-0.236,0.128-0.273,0.164c-0.291,0.183-0.711,0.42-1.256,0.711c-0.365,0.219-0.621,0.365-0.767,0.438h4.593V17.504z"
		/>
</g>
</svg>
