<?xml version="1.0" encoding="utf-8"?><!DOCTYPE svg PUBLIC "-//W3C//DTD SVG 1.1//EN" "http://www.w3.org/Graphics/SVG/1.1/DTD/svg11.dtd"><svg width="50" height="25" viewBox="0 0 50 25" xmlns="http://www.w3.org/2000/svg" xmlns:xlink="http://www.w3.org/1999/xlink"><svg width="25" height="25" viewBox="0 0 25 25" id=""><title>1名</title><path fill="#E55453" d="M3.368 8.717L.29 11.795c-.385.386-.39 1.02 0 1.41l3.078 3.077v4.354c0 .544.445.995.995.995h4.354l3.08 3.08c.385.386 1.018.39 1.408 0l3.078-3.08h4.354c.544 0 .995-.442.995-.994v-4.354l3.08-3.078c.385-.386.39-1.02 0-1.41l-3.08-3.078V4.362c0-.543-.443-.995-.995-.995h-4.354L13.205.29c-.386-.386-1.02-.39-1.41 0L8.718 3.366H4.363c-.544 0-.995.445-.995.995v4.355z"/><path fill="#F5F5F5" d="M14.098 7.496v10.008H11.2v-5.742H8.903V9.74c1.713.036 2.716-.712 3.008-2.243h2.188z"/></svg><svg width="25" height="25" viewBox="0 0 25 25" id="" x="25"><title>1名</title><path fill="#F0BB0F" d="M3.368 8.717L.29 11.795c-.385.386-.39 1.02 0 1.41l3.078 3.077v4.354c0 .544.445.995.995.995h4.354l3.08 3.08c.385.386 1.018.39 1.408 0l3.078-3.08h4.354c.544 0 .995-.442.995-.994v-4.354l3.08-3.078c.385-.386.39-1.02 0-1.41l-3.08-3.078V4.362c0-.543-.443-.995-.995-.995h-4.354L13.205.29c-.386-.386-1.02-.39-1.41 0L8.718 3.366H4.363c-.544 0-.995.445-.995.995v4.355z"/><path fill="#F5F5F5" d="M16.633 17.504H8.32c-.072-.947.33-1.877 1.204-2.79.4-.437 1.094-.983 2.078-1.64 1.458-.875 2.167-1.677 2.132-2.406-.073-.583-.457-.91-1.148-.984-1.02.037-1.495.656-1.422 1.86H8.54c-.036-2.7 1.35-4.048 4.155-4.048 2.59.11 3.92 1.167 3.992 3.172 0 1.094-.783 2.133-2.352 3.117-.146.072-.236.128-.273.164-.29.182-.71.42-1.256.71-.365.22-.62.365-.767.438h4.592v2.406z"/></svg></svg>